# xmcd
#
# Track frame offsets:
#	150
#	13225
#	30522
#	47337
#	60995
#	75247
#	88047
#	103752
#	119325
#	134342
#	148695
#	161807
#	177732
#	189615
#	203132
#	218200
#	234007
#	247137
#	265505
#	276640
#
# Disc length: 3904 seconds
#
# Revision: 0
# Processed by: cddbd v1.5.1PL0 Copyright (c) Steve Scherf et al.
# Submitted via: dBpowerAMP V4.0
#
DISCID=1d0f3e14
DTITLE=Dionysiou Stratos - Great Successes
DYEAR=1997
DGENRE=Folk-Rock
TTITLE0=Dionysiou- He killed because I loved her
TTITLE1=Dionysiou- O Salonikios
TTITLE2=You got everything
TTITLE3=Lege lege
TTITLE4=Ypokrinesai
TTITLE5=The taxi driver
TTITLE6=Woman's  heart
TTITLE7=Mono oi erwtevmenoi
TTITLE8=Mia kardia aliti
TTITLE9=Poios eipe gia tous manges
TTITLE10=I collected my belongings
TTITLE11=Fevgontas
TTITLE12=It is not over yet
TTITLE13=THink it over
TTITLE14=Alitissa
TTITLE15=Come back to me
TTITLE16=Zito akroasi Theou
TTITLE17=Efyge
TTITLE18=Kai pali mangas thasai
TTITLE19=O laos tragoudi thelei
EXTD=
EXTT0=
EXTT1=
EXTT2=
EXTT3=
EXTT4=
EXTT5=
EXTT6=
EXTT7=
EXTT8=
EXTT9=
EXTT10=
EXTT11=
EXTT12=
EXTT13=
EXTT14=
EXTT15=
EXTT16=
EXTT17=
EXTT18=
EXTT19=
PLAYORDER=
